<svg fill="#831843" width="800" height="800" viewBox="-.5 .5 42 42" xmlns="http://www.w3.org/2000/svg"><path d="M35.79 31.5c-.05-.04-5.181-7.971-6.72-7.971-1.51 0-4.391 3.851-4.391 3.851-2.24-2.31-7.2-8.87-8.661-8.87-1.509 0-7.449 8.12-10.789 12.99H35.79zm-8.979-17c0 2.04 1.649 3.69 3.689 3.69s3.689-1.65 3.689-3.69-1.649-3.69-3.689-3.69-3.689 1.65-3.689 3.69zM.5 7.5v27c0 2.52.51 3 3 3h34c2.471 0 3-.46 3-3v-27c0-2.46-.471-3-3-3h-34c-2.48 0-3 .43-3 3zm3 0h34v27h-34v-27z"/><path d="M3.593 21.055V7.62h33.814V34.492H3.593zm32.212 10.417c0-.251-2.35-3.578-3.851-5.453-1.436-1.793-2.32-2.562-2.944-2.56-.752 0-2.028 1.014-3.652 2.899l-.735.853-2.657-3.078c-3.486-4.038-5.188-5.658-5.945-5.658-1.058 0-4.193 3.577-8.913 10.17-1.052 1.47-1.913 2.746-1.913 2.836 0 .098 6.127.163 15.305.163 9.72 0 15.305-.063 15.305-.172zm-3.62-13.589c1.33-.687 2.018-1.853 2.018-3.414 0-1.55-.937-2.974-2.303-3.502-.91-.352-2.436-.217-3.305.292-2.7 1.582-2.361 5.701.559 6.787.812.302 2.285.223 3.03-.163z" fill="#fff"/></svg>