<svg width="800" height="800" viewBox="0 0 32 32" xmlns="http://www.w3.org/2000/svg"><path d="M30.859 12.545a1.253 1.253 0 00-1.189-.864h-9.535l-2.946-9.067a1.3 1.3 0 00-2.373-.008l-.003.008-2.946 9.067H2.333a1.25 1.25 0 00-.738 2.259l.004.002 7.713 5.603-2.946 9.068a1.25 1.25 0 001.927 1.396l-.004.002 7.714-5.605 7.713 5.605a1.25 1.25 0 001.921-1.408l.003.009-2.947-9.066 7.715-5.604a1.253 1.253 0 00.452-1.406l.003.009zm-10.373 5.512a1.255 1.255 0 00-.452 1.408l-.003-.009 2.039 6.271-5.336-3.877c-.203-.149-.458-.238-.734-.238s-.531.089-.738.241l.004-.002-5.336 3.877 2.038-6.271a1.25 1.25 0 00-.45-1.396l-.004-.002-5.335-3.876h6.596c.552 0 1.02-.358 1.185-.854l.003-.009 2.038-6.272 2.037 6.272c.169.505.637.863 1.189.863h6.596z" fill="currentColor"/></svg>