<svg viewBox="0 0 100 100" xmlns="http://www.w3.org/2000/svg">
  <path fill="#fff" stroke="#000"
    d="M50.178 2.805c-26.164 0-47.373 21.209-47.373 47.373 0 26.164 21.209 47.372 47.373 47.372 26.164 0 47.372-21.208 47.372-47.372S76.342 2.805 50.178 2.805zM25.425 45.49h2.606v9.379h-2.606zm10.683 29.44h-9.379a1.303 1.303 0 01-1.303-1.303V64.25h2.606v8.075h8.076zm0-46.9H28.03v8.08h-2.606v-9.382a1.303 1.303 0 011.303-1.303h9.38zm18.76 46.9h-9.38v-2.606h9.38zm0-46.9h-9.38v-2.605h9.38zM74.93 73.628a1.303 1.303 0 01-1.303 1.303h-9.38v-2.606h8.077V64.25h2.606zm0-18.758h-2.606V45.49h2.606zm0-18.759h-2.606v-8.08H64.25v-2.605h9.378a1.303 1.303 0 011.303 1.303z"
    stroke-width="4" />
</svg>