<svg viewBox="0 0 100 100" xmlns="http://www.w3.org/2000/svg"><path fill="#FFF" stroke="#000" d="M50 10c-22.092 0-40 17.908-40 40s17.908 40 40 40 40-17.908 40-40-17.908-40-40-40zM29.1 46.042h2.2v7.919h-2.2v-7.919zM38.12 70.9h-7.919a1.1 1.1 0 01-1.1-1.1v-7.919h2.2V68.7h6.819v2.2zm0-39.6H31.3v6.822h-2.2V30.2a1.1 1.1 0 011.1-1.1h7.92v2.2zm15.84 39.6h-7.919v-2.2h7.919v2.2zm0-39.6h-7.919v-2.2h7.919v2.2zM70.9 69.8a1.1 1.1 0 01-1.1 1.1h-7.92v-2.2h6.82v-6.819h2.2V69.8zm0-15.839h-2.2v-7.919h2.2v7.919zm0-15.839h-2.2V31.3h-6.819v-2.2H69.8a1.1 1.1 0 011.1 1.1v7.922z" stroke-width="2.5"/></svg>